<?xml version="1.0" encoding="UTF-8"?>
<svg id="Calque_2" data-name="Calque 2" xmlns="http://www.w3.org/2000/svg" viewBox="897.58 357.92 530.64 436.22">
  <defs>
    <style>
      .cls-1 {
        fill: #4221ce;
      }
    </style>
  </defs>
  <g id="favicon-ligth">
    <g>
      <path class="cls-1" d="M1171.17,373.78c7.44-.56,14.88-.84,22.46-.84,79.17,0,139.96,23.58,177.15,61.91,12.35,12.77,8.14,23.16-9.55,24.15-53.2,2.67-189.23-56.29-194-58.12-31.16-12.77-29.76-24.85,3.93-27.09Z"/>
      <path class="cls-1" d="M1154.17,778.28c-7.44.56-14.88.84-22.46.84-79.17,0-139.96-23.58-177.15-61.91-12.35-12.77-8.14-23.16,9.55-24.15,53.2-2.67,189.23,56.29,194,58.12,31.16,12.77,29.76,24.85-3.93,27.09Z"/>
      <path class="cls-1" d="M1382.15,644.99c-8.98,15.58-19.79,30.04-32.01,43.37-1.26,1.41-3.65,3.09-5.33,3.79-23.3,9.41-50.11,15.44-78.61,13.62-45.76-2.95-93.07-25.83-142.76-49.97-.42-.14-.7-.14-.7-.28-26.95-12.92-58.12-20.22-90.12-20.5l-105.84-.7c-7.44-.14-13.76-6.18-13.9-13.62-.28-4.35-.28-8.7,0-13.2.28-6.6,5.62-12.91,12.07-13.62,33.83-4.07,70.61-1.68,112.16,9.97,8.7,2.25,17.69,5.2,26.81,8.56h.14c16.28,5.89,33.97,9.4,52.22,9.54h7.3l246.36,2.11c13.05,0,18.67,9.55,12.21,20.92Z"/>
      <path class="cls-1" d="M1412.05,552.48c-.42,4.21-3.93,9.4-7.72,11.23-26.95,13.05-59.52,22.88-94.89,20.78-45.62-2.95-92.79-25.69-142.48-49.83-.56-.14-.7-.14-.84-.28-27.37-13.19-59.1-20.21-91.24-20.49l-109.21-.84c-15.02-.14-19.93-9.97-11.37-22.32,3.23-4.63,6.6-9.12,10.25-13.48,1.97-2.53,6.32-4.91,9.55-5.19,32.01-3.23,67.1-.42,106.12,10.53,8.7,2.39,17.83,5.19,26.95,8.56l.14.14c16.42,5.9,33.69,9.12,51.8,9.27l8.14.14,229.8,1.96c6.74,0,12.77,5.62,13.76,12.21,1.96,12.07,2.39,24.71,1.26,37.62Z"/>
    </g>
  </g>
</svg>