<?xml version="1.0" encoding="UTF-8"?>
<svg id="Calque_2" data-name="Calque 2" xmlns="http://www.w3.org/2000/svg" viewBox="897.63 477.34 530.03 197.11">
  <defs>
    <style>
      .cls-1 {
        fill: #8a7cff;
      }

      .cls-2 {
        fill: #eaeaea;
      }
    </style>
  </defs>
  <g id="logotype-light">
    <g>
      <path class="cls-1" d="M1019.01,492.69c3.06-.23,6.12-.35,9.24-.35,32.57,0,57.58,9.7,72.88,25.47,5.08,5.26,3.35,9.53-3.93,9.93-21.89,1.1-77.85-23.16-79.81-23.91-12.82-5.25-12.24-10.22,1.62-11.15Z"/>
      <path class="cls-1" d="M1012.02,659.1c-3.06.23-6.12.35-9.24.35-32.57,0-57.58-9.7-72.88-25.47-5.08-5.26-3.35-9.53,3.93-9.93,21.89-1.1,77.85,23.16,79.81,23.91,12.82,5.25,12.24,10.22-1.62,11.15Z"/>
      <path class="cls-1" d="M1105.81,604.26c-3.7,6.41-8.14,12.36-13.17,17.84-.52.58-1.5,1.27-2.19,1.56-9.59,3.87-20.62,6.35-32.34,5.6-18.83-1.21-38.29-10.63-58.73-20.56-.17-.06-.29-.06-.29-.11-11.09-5.31-23.91-8.32-37.08-8.43l-43.54-.29c-3.06-.06-5.66-2.54-5.72-5.6-.12-1.79-.12-3.58,0-5.43.12-2.71,2.31-5.31,4.97-5.6,13.92-1.68,29.05-.69,46.14,4.1,3.58.92,7.28,2.14,11.03,3.52h.06c6.7,2.43,13.98,3.87,21.48,3.93h3l101.35.87c5.37,0,7.68,3.93,5.02,8.61Z"/>
      <path class="cls-1" d="M1118.11,566.21c-.17,1.73-1.62,3.87-3.18,4.62-11.09,5.37-24.49,9.41-39.04,8.55-18.77-1.21-38.17-10.57-58.62-20.5-.23-.06-.29-.06-.35-.12-11.26-5.43-24.31-8.32-37.54-8.43l-44.93-.35c-6.18-.06-8.2-4.1-4.68-9.18,1.33-1.91,2.71-3.75,4.22-5.54.81-1.04,2.6-2.02,3.93-2.14,13.17-1.33,27.61-.17,43.66,4.33,3.58.98,7.33,2.14,11.09,3.52l.06.06c6.76,2.43,13.86,3.75,21.31,3.81l3.35.06,94.54.81c2.77,0,5.26,2.31,5.66,5.03.81,4.97.98,10.16.52,15.48Z"/>
    </g>
    <g>
      <path class="cls-2" d="M1128.95,585.33c6.07-18.59,24.27-30.24,44.91-30.24,28.09,0,39.36,17.76,32.77,38.01l-.69,1.94h-58.61c-.35,9.02,5.89,15.4,19.25,15.4,9.54,0,15.09-3.88,18.9-8.6l16.64,7.77c-7.63,8.46-20.12,14.43-36.59,14.43-30,0-43.52-16.37-36.59-38.71ZM1171.78,568.4c-9.88,0-18.38,5.13-22.02,14.71h38.5c1.38-6.94-2.08-14.71-16.47-14.71ZM1190.85,527.2h24.62l-.52,1.66-32.95,19.01h-12.66l21.5-20.67Z"/>
      <path class="cls-2" d="M1200.05,584.22c5.72-17.76,23.58-29.41,44.74-29.41s33.81,10.13,34.68,24.83l-21.33,3.05c0-8.18-3.99-14.01-14.74-14.01s-19.76,7.63-23.41,18.59c-3.47,10.82-1.39,22.2,15.43,22.2,9.01,0,14.22-4.16,18.73-11.38l17.86,6.8c-8.84,11.51-21.33,18.59-37.98,18.59-28.09,0-40.92-17.9-33.99-39.26Z"/>
      <path class="cls-2" d="M1266.82,585.47c6.07-18.31,24.45-30.38,45.6-30.38,27.92,0,42.31,17.48,35.03,38.57-5.89,18.03-24.62,29.97-45.78,29.97-27.05,0-41.96-16.79-34.85-38.15ZM1326.82,591.85c3.64-12.07-.17-22.75-15.78-22.75-11.1,0-19.94,6.8-23.76,18.31-3.29,10.68-.52,22.2,16.13,22.2,11.1,0,19.77-5.97,23.41-17.76Z"/>
      <path class="cls-2" d="M1332.2,606.69l19.25-6.38c3.47,5.69,10.06,10.27,19.94,10.27,5.89,0,9.36-1.53,10.75-5.27,1.73-4.44-3.12-6.66-16.65-10.41-16.99-4.72-24.45-11.1-21.33-23.45,3.47-10.54,16.65-17.06,32.08-17.06s29.48,6.38,36.42,18.31l-18.73,5.41c-3.29-6.11-9.71-9.99-19.07-9.99-5.72,0-10.23,1.94-11.62,5.55-1.22,4.72,2.25,6.1,15.09,9.71,17.16,4.58,27.57,12.07,23.41,24.28-3.99,11.79-15.95,16.93-32.6,16.93s-30.69-6.8-36.93-17.9Z"/>
    </g>
  </g>
</svg>