<?xml version="1.0" encoding="UTF-8"?>
<svg id="Calque_2" data-name="Calque 2" xmlns="http://www.w3.org/2000/svg" viewBox="906 494 520 153">
  <defs>
    <style>
      .cls-1 {
        fill: #0a0a0a;
      }
    </style>
  </defs>
  <g id="texte-titre-dark">
    <g>
      <path class="cls-1" d="M914.37,554.42c5.81-17.81,23.26-28.98,43.03-28.98,26.91,0,37.71,17.01,31.4,36.42l-.67,1.86h-56.15c-.33,8.64,5.65,14.75,18.44,14.75,9.14,0,14.45-3.72,18.11-8.24l15.95,7.44c-7.31,8.11-19.27,13.82-35.05,13.82-28.74,0-41.7-15.68-35.05-37.08ZM955.4,538.21c-9.47,0-17.61,4.92-21.1,14.09h36.88c1.33-6.65-2-14.09-15.78-14.09ZM973.68,498.73h23.59l-.49,1.59-31.57,18.21h-12.13l20.6-19.8Z"/>
      <path class="cls-1" d="M982.49,553.36c5.48-17.01,22.6-28.18,42.86-28.18s32.4,9.7,33.23,23.79l-20.43,2.92c0-7.84-3.82-13.43-14.12-13.43s-18.94,7.31-22.42,17.81c-3.32,10.37-1.33,21.27,14.79,21.27,8.64,0,13.62-3.99,17.94-10.9l17.11,6.51c-8.47,11.03-20.43,17.81-36.38,17.81-26.91,0-39.21-17.15-32.56-37.61Z"/>
      <path class="cls-1" d="M1046.47,554.56c5.81-17.54,23.42-29.11,43.69-29.11,26.75,0,40.54,16.75,33.56,36.95-5.65,17.28-23.59,28.71-43.86,28.71-25.91,0-40.2-16.08-33.39-36.55ZM1103.95,560.67c3.49-11.56-.17-21.8-15.12-21.8-10.63,0-19.11,6.51-22.76,17.54-3.16,10.23-.5,21.27,15.45,21.27,10.63,0,18.94-5.72,22.43-17.01Z"/>
      <path class="cls-1" d="M1109.11,574.89l18.44-6.11c3.32,5.45,9.63,9.84,19.11,9.84,5.65,0,8.97-1.46,10.3-5.05,1.66-4.25-2.99-6.38-15.95-9.97-16.28-4.52-23.42-10.63-20.43-22.46,3.32-10.1,15.95-16.35,30.73-16.35s28.24,6.11,34.89,17.54l-17.94,5.18c-3.16-5.85-9.31-9.57-18.27-9.57-5.48,0-9.8,1.86-11.13,5.32-1.16,4.52,2.16,5.85,14.45,9.3,16.45,4.39,26.41,11.56,22.43,23.26-3.82,11.3-15.29,16.22-31.24,16.22s-29.4-6.51-35.39-17.15Z"/>
    </g>
    <g>
      <path class="cls-1" d="M914.37,619.31c0-8.18,6.2-13.52,14.51-13.52,4.5,0,8.11,1.69,10.42,4.42v-14.88h6.4v36.74h-6.4v-3.82c-2.25,2.67-5.93,4.36-10.49,4.36-8.18,0-14.44-4.96-14.44-13.3ZM939.64,619.31v-.44c0-5.12-3.47-8.56-9.13-8.56s-9.2,3.22-9.2,8.83v.38c0,5.51,3.61,8.56,9.2,8.56s9.13-3.65,9.13-8.78Z"/>
      <path class="cls-1" d="M948.84,619.26c0-7.85,6.68-13.36,16.15-13.36s16.08,5.51,16.08,13.36-6.81,13.24-16.21,13.24-16.01-5.4-16.01-13.24ZM974.32,619.42v-.22c0-5.4-3.54-8.83-9.33-8.83s-9.47,3.43-9.47,8.83v.22c0,5.29,3.54,8.56,9.33,8.56s9.47-3.27,9.47-8.56Z"/>
      <path class="cls-1" d="M984.2,606.34h6.61v4.91c1.7-3.49,5.04-5.45,9.88-5.45,6.95,0,11.17,3.76,11.17,10.57v15.7h-6.61v-15.37c0-4.09-2.18-6.21-6.54-6.21-5.04,0-7.9,3.33-7.9,9.32v12.26h-6.61v-25.73Z"/>
      <path class="cls-1" d="M1016.83,606.34h6.61v4.91c1.7-3.49,5.04-5.45,9.88-5.45,6.95,0,11.17,3.76,11.17,10.57v15.7h-6.61v-15.37c0-4.09-2.18-6.21-6.54-6.21-5.04,0-7.9,3.33-7.9,9.32v12.26h-6.61v-25.73Z"/>
      <path class="cls-1" d="M1047.43,619.37c0-7.96,6.61-13.46,15.74-13.46s15.12,5.07,15.12,13.14v1.96h-24.25c.41,4.41,3.88,7.19,9.4,7.19s7.9-2.13,9.13-4.63l5.86,1.8c-2.11,3.87-6.74,7.14-14.99,7.14-9.88,0-16.01-5.23-16.01-13.14ZM1063.03,610.21c-4.91,0-8.45,2.62-9.13,6.81h17.58c-.27-4.47-3.34-6.81-8.45-6.81ZM1067.73,594.57h7.43v.49l-10.29,7.47h-4.09l6.95-7.96Z"/>
      <path class="cls-1" d="M1080.19,619.37c0-7.96,6.61-13.46,15.74-13.46s15.12,5.07,15.12,13.14v1.96h-24.25c.41,4.41,3.88,7.19,9.4,7.19s7.9-2.13,9.13-4.63l5.86,1.8c-2.11,3.87-6.74,7.14-14.99,7.14-9.88,0-16.01-5.23-16.01-13.14ZM1095.8,610.21c-4.91,0-8.45,2.62-9.13,6.81h17.58c-.27-4.47-3.34-6.81-8.45-6.81Z"/>
      <path class="cls-1" d="M1112.9,627.38l5.72-2.4c1.98,2.29,5.31,3.43,8.72,3.43,3.68,0,5.86-1.31,5.86-3.49,0-2.29-3.88-2.78-8.86-3.65-5.93-.98-11.1-2.56-11.1-7.52,0-4.52,5.38-7.96,12.13-7.96,6.06,0,10.76,2.18,13.9,5.51l-5.79,2.23c-1.77-2.18-4.7-3.43-8.11-3.43s-5.72,1.31-5.72,3.27c0,2.18,2.11,2.56,7.97,3.49,5.93.93,11.99,2.62,11.99,7.69,0,4.8-5.25,8.23-12.54,8.23-6.27,0-11.24-2.07-14.17-5.4Z"/>
      <path class="cls-1" d="M1153.43,619.15c0-7.69,6.54-13.25,15.94-13.25,7.49,0,12.33,3.27,14.31,8.23l-6.34,1.64c-1.09-3.38-3.47-5.4-8.11-5.4-5.65,0-9.13,3.54-9.13,8.72v.22c0,5.07,3.27,8.72,8.92,8.72,5.25,0,7.49-2.13,8.65-5.67l6.27,1.58c-2.18,5.18-7.02,8.56-14.78,8.56-9.61,0-15.74-5.5-15.74-13.35Z"/>
      <path class="cls-1" d="M1185.39,625.31c0-5.78,5.38-7.09,12.54-8.34,5.52-.93,8.92-1.2,9.54-2.73v-.33c0-2.13-1.97-3.76-6.95-3.76s-7.7,1.74-7.7,4.69v.27h-6.68c.2-5.72,5.93-9.21,14.44-9.21s13.15,2.94,13.15,9.43v16.73h-6.34v-3.87c-2.25,3.05-6.27,4.52-10.83,4.52-6.88,0-11.17-3-11.17-7.41ZM1207.46,621.71v-3.22c-1.97,1.09-5.45,1.53-8.58,2.13-3.68.76-6.74,1.69-6.74,4.47,0,2.13,1.98,3.6,5.52,3.6,4.77,0,9.27-1.96,9.81-6.98Z"/>
      <path class="cls-1" d="M1218.77,606.34h6.47v3.82c2.18-2.72,5.93-4.36,10.42-4.36,8.31,0,14.51,5.01,14.51,13.25v.05c0,8.29-6.2,13.52-14.58,13.52-4.43,0-8.04-1.64-10.29-4.31v13.9h-6.54v-35.87ZM1243.23,619.26v-.38c0-5.56-3.68-8.56-9.2-8.56s-9.13,3.6-9.13,8.78v.44c0,5.12,3.48,8.56,9.13,8.56s9.2-3.27,9.2-8.83Z"/>
      <path class="cls-1" d="M1255.49,625.64v-14.77h-5.18v-4.52h5.18v-5.07l6.34-3.16v8.23h7.02v4.52h-7.02v14.17c0,1.64.82,2.4,2.93,2.4h3.82v4.63h-5.72c-5.79,0-7.36-2.34-7.36-6.43Z"/>
      <path class="cls-1" d="M1271.3,621.98v-15.64h6.68v15.37c0,4.03,2.18,6.21,6.61,6.21,5.31,0,7.84-3.71,7.84-9.32v-12.27h6.54v25.73h-6.54v-4.58c-1.77,3.33-4.91,5.01-9.61,5.01-7.22,0-11.51-3.98-11.51-10.52Z"/>
      <path class="cls-1" d="M1304.27,606.34h6.61v4.85c.89-3,3.41-5.12,9.4-5.12h.95v5.23h-3c-5.79,0-7.36,2.29-7.36,7.58v13.19h-6.61v-25.73Z"/>
      <path class="cls-1" d="M1320.49,619.37c0-7.96,6.61-13.46,15.74-13.46s15.12,5.07,15.12,13.14v1.96h-24.25c.41,4.41,3.88,7.19,9.4,7.19s7.9-2.13,9.13-4.63l5.86,1.8c-2.11,3.87-6.74,7.14-14.99,7.14-9.88,0-16.01-5.23-16.01-13.14ZM1336.09,610.21c-4.9,0-8.45,2.62-9.13,6.81h17.58c-.27-4.47-3.34-6.81-8.45-6.81ZM1340.79,594.57h7.43v.49l-10.29,7.47h-4.09l6.95-7.96Z"/>
      <path class="cls-1" d="M1353.26,619.37c0-7.96,6.61-13.46,15.74-13.46s15.12,5.07,15.12,13.14v1.96h-24.25c.41,4.41,3.88,7.19,9.4,7.19s7.9-2.13,9.13-4.63l5.86,1.8c-2.11,3.87-6.74,7.14-14.99,7.14-9.88,0-16.01-5.23-16.01-13.14ZM1368.86,610.21c-4.9,0-8.45,2.62-9.13,6.81h17.58c-.27-4.47-3.34-6.81-8.45-6.81Z"/>
      <path class="cls-1" d="M1385.96,627.38l5.72-2.4c1.98,2.29,5.31,3.43,8.72,3.43,3.68,0,5.86-1.31,5.86-3.49,0-2.29-3.88-2.78-8.86-3.65-5.93-.98-11.1-2.56-11.1-7.52,0-4.52,5.38-7.96,12.13-7.96,6.06,0,10.77,2.18,13.9,5.51l-5.79,2.23c-1.77-2.18-4.7-3.43-8.11-3.43s-5.72,1.31-5.72,3.27c0,2.18,2.11,2.56,7.97,3.49,5.93.93,11.99,2.62,11.99,7.69,0,4.8-5.25,8.23-12.54,8.23-6.27,0-11.24-2.07-14.17-5.4Z"/>
    </g>
  </g>
</svg>