<?xml version="1.0" encoding="UTF-8"?>
<svg id="Calque_2" data-name="Calque 2" xmlns="http://www.w3.org/2000/svg" viewBox="906 494 520 153">
  <defs>
    <style>
      .cls-1 {
        fill: #eaeaea;
      }
    </style>
  </defs>
  <g id="texte-titre-dark">
    <g>
      <path class="cls-1" d="M914.65,555.23c5.81-17.8,23.24-28.96,43-28.96,26.9,0,37.69,17,31.38,36.4l-.66,1.86h-56.12c-.33,8.64,5.64,14.75,18.43,14.75,9.13,0,14.45-3.72,18.1-8.24l15.94,7.44c-7.31,8.1-19.26,13.82-35.03,13.82-28.72,0-41.67-15.67-35.03-37.06ZM955.66,539.02c-9.46,0-17.6,4.92-21.09,14.08h36.86c1.33-6.64-1.99-14.08-15.78-14.08ZM973.92,499.57h23.58l-.49,1.59-31.55,18.2h-12.12l20.59-19.79Z"/>
      <path class="cls-1" d="M982.73,554.17c5.48-17,22.58-28.16,42.84-28.16s32.38,9.7,33.21,23.78l-20.42,2.92c0-7.84-3.82-13.42-14.12-13.42s-18.93,7.31-22.41,17.8c-3.32,10.36-1.33,21.25,14.78,21.25,8.63,0,13.61-3.99,17.93-10.89l17.1,6.51c-8.47,11.03-20.42,17.8-36.36,17.8-26.9,0-39.19-17.14-32.54-37.59Z"/>
      <path class="cls-1" d="M1046.67,555.37c5.81-17.53,23.41-29.09,43.67-29.09,26.73,0,40.51,16.74,33.54,36.93-5.64,17.27-23.58,28.69-43.84,28.69-25.9,0-40.18-16.07-33.37-36.53ZM1104.12,561.48c3.49-11.56-.17-21.79-15.11-21.79-10.63,0-19.1,6.51-22.75,17.53-3.15,10.23-.5,21.25,15.44,21.25,10.63,0,18.93-5.71,22.42-17Z"/>
      <path class="cls-1" d="M1109.28,575.69l18.43-6.11c3.32,5.44,9.63,9.83,19.1,9.83,5.64,0,8.96-1.46,10.29-5.05,1.66-4.25-2.99-6.38-15.94-9.96-16.27-4.52-23.41-10.63-20.42-22.45,3.32-10.1,15.94-16.34,30.72-16.34s28.23,6.11,34.87,17.53l-17.93,5.18c-3.15-5.85-9.3-9.57-18.26-9.57-5.48,0-9.8,1.86-11.13,5.32-1.16,4.52,2.16,5.84,14.45,9.3,16.44,4.38,26.4,11.56,22.42,23.25-3.82,11.29-15.28,16.21-31.22,16.21s-29.39-6.51-35.37-17.14Z"/>
    </g>
    <g>
      <path class="cls-1" d="M914.64,620.08c0-8.17,6.2-13.51,14.5-13.51,4.49,0,8.1,1.69,10.42,4.41v-14.87h6.4v36.72h-6.4v-3.81c-2.25,2.67-5.92,4.36-10.49,4.36-8.17,0-14.43-4.96-14.43-13.29ZM939.9,620.08v-.44c0-5.12-3.47-8.55-9.12-8.55s-9.19,3.21-9.19,8.83v.38c0,5.5,3.61,8.55,9.19,8.55s9.12-3.65,9.12-8.77Z"/>
      <path class="cls-1" d="M949.1,620.03c0-7.85,6.67-13.35,16.14-13.35s16.07,5.5,16.07,13.35-6.81,13.24-16.21,13.24-16-5.39-16-13.24ZM974.56,620.19v-.22c0-5.39-3.54-8.83-9.33-8.83s-9.46,3.43-9.46,8.83v.22c0,5.28,3.54,8.55,9.33,8.55s9.46-3.27,9.46-8.55Z"/>
      <path class="cls-1" d="M984.44,607.12h6.6v4.9c1.7-3.49,5.04-5.45,9.87-5.45,6.95,0,11.17,3.76,11.17,10.57v15.69h-6.6v-15.36c0-4.09-2.18-6.21-6.54-6.21-5.04,0-7.9,3.32-7.9,9.32v12.26h-6.6v-25.71Z"/>
      <path class="cls-1" d="M1017.05,607.12h6.6v4.9c1.7-3.49,5.04-5.45,9.87-5.45,6.95,0,11.17,3.76,11.17,10.57v15.69h-6.6v-15.36c0-4.09-2.18-6.21-6.54-6.21-5.04,0-7.9,3.32-7.9,9.32v12.26h-6.6v-25.71Z"/>
      <path class="cls-1" d="M1047.63,620.14c0-7.95,6.6-13.46,15.73-13.46s15.12,5.07,15.12,13.13v1.96h-24.24c.41,4.41,3.88,7.19,9.4,7.19s7.9-2.12,9.12-4.63l5.86,1.8c-2.11,3.87-6.74,7.14-14.98,7.14-9.87,0-16-5.23-16-13.13ZM1063.22,610.99c-4.9,0-8.44,2.61-9.12,6.81h17.57c-.27-4.47-3.34-6.81-8.44-6.81ZM1067.92,595.35h7.42v.49l-10.28,7.46h-4.09l6.95-7.95Z"/>
      <path class="cls-1" d="M1080.38,620.14c0-7.95,6.6-13.46,15.73-13.46s15.12,5.07,15.12,13.13v1.96h-24.24c.41,4.41,3.88,7.19,9.4,7.19s7.9-2.12,9.12-4.63l5.86,1.8c-2.11,3.87-6.74,7.14-14.98,7.14-9.87,0-16-5.23-16-13.13ZM1095.97,610.99c-4.9,0-8.44,2.61-9.12,6.81h17.57c-.27-4.47-3.34-6.81-8.44-6.81Z"/>
      <path class="cls-1" d="M1113.06,628.15l5.72-2.4c1.97,2.29,5.31,3.43,8.72,3.43,3.68,0,5.86-1.31,5.86-3.49,0-2.29-3.88-2.78-8.85-3.65-5.92-.98-11.1-2.56-11.1-7.52,0-4.52,5.38-7.95,12.12-7.95,6.06,0,10.76,2.18,13.89,5.5l-5.79,2.23c-1.77-2.18-4.7-3.43-8.1-3.43s-5.72,1.31-5.72,3.27c0,2.18,2.11,2.56,7.97,3.49,5.92.93,11.98,2.61,11.98,7.68,0,4.79-5.24,8.23-12.53,8.23-6.26,0-11.23-2.07-14.16-5.39Z"/>
      <path class="cls-1" d="M1153.58,619.92c0-7.68,6.54-13.24,15.93-13.24,7.49,0,12.32,3.27,14.3,8.23l-6.33,1.63c-1.09-3.38-3.47-5.39-8.1-5.39-5.65,0-9.12,3.54-9.12,8.72v.22c0,5.07,3.27,8.72,8.92,8.72,5.24,0,7.49-2.12,8.65-5.67l6.26,1.58c-2.18,5.18-7.01,8.55-14.78,8.55-9.6,0-15.73-5.5-15.73-13.35Z"/>
      <path class="cls-1" d="M1185.51,626.08c0-5.78,5.38-7.08,12.53-8.34,5.51-.93,8.92-1.2,9.53-2.72v-.33c0-2.12-1.97-3.76-6.94-3.76s-7.69,1.74-7.69,4.69v.27h-6.67c.2-5.72,5.92-9.21,14.44-9.21s13.14,2.94,13.14,9.42v16.72h-6.33v-3.87c-2.25,3.05-6.26,4.52-10.83,4.52-6.88,0-11.17-3-11.17-7.41ZM1207.57,622.48v-3.22c-1.97,1.09-5.45,1.53-8.58,2.12-3.68.76-6.74,1.69-6.74,4.47,0,2.12,1.97,3.6,5.52,3.6,4.77,0,9.26-1.96,9.8-6.97Z"/>
      <path class="cls-1" d="M1218.88,607.12h6.47v3.81c2.18-2.72,5.92-4.36,10.42-4.36,8.31,0,14.5,5.01,14.5,13.24v.05c0,8.28-6.2,13.51-14.57,13.51-4.43,0-8.03-1.63-10.28-4.3v13.89h-6.54v-35.85ZM1243.32,620.03v-.38c0-5.56-3.68-8.55-9.19-8.55s-9.12,3.6-9.12,8.77v.44c0,5.12,3.47,8.55,9.12,8.55s9.19-3.27,9.19-8.83Z"/>
      <path class="cls-1" d="M1255.58,626.4v-14.76h-5.18v-4.52h5.18v-5.07l6.33-3.16v8.23h7.01v4.52h-7.01v14.16c0,1.63.82,2.4,2.93,2.4h3.81v4.63h-5.72c-5.79,0-7.35-2.34-7.35-6.43Z"/>
      <path class="cls-1" d="M1271.37,622.75v-15.64h6.67v15.36c0,4.03,2.18,6.21,6.6,6.21,5.31,0,7.83-3.7,7.83-9.31v-12.26h6.54v25.71h-6.54v-4.58c-1.77,3.32-4.9,5.01-9.6,5.01-7.22,0-11.51-3.98-11.51-10.51Z"/>
      <path class="cls-1" d="M1304.33,607.12h6.61v4.85c.89-3,3.4-5.12,9.4-5.12h.95v5.23h-3c-5.79,0-7.35,2.29-7.35,7.57v13.18h-6.61v-25.71Z"/>
      <path class="cls-1" d="M1320.54,620.14c0-7.95,6.61-13.46,15.73-13.46s15.12,5.07,15.12,13.13v1.96h-24.24c.41,4.41,3.88,7.19,9.4,7.19s7.9-2.12,9.12-4.63l5.85,1.8c-2.11,3.87-6.74,7.14-14.98,7.14-9.87,0-16-5.23-16-13.13ZM1336.13,610.99c-4.9,0-8.44,2.61-9.12,6.81h17.57c-.27-4.47-3.34-6.81-8.44-6.81ZM1340.83,595.35h7.42v.49l-10.28,7.46h-4.09l6.95-7.95Z"/>
      <path class="cls-1" d="M1353.29,620.14c0-7.95,6.61-13.46,15.73-13.46s15.12,5.07,15.12,13.13v1.96h-24.24c.41,4.41,3.88,7.19,9.4,7.19s7.9-2.12,9.12-4.63l5.85,1.8c-2.11,3.87-6.74,7.14-14.98,7.14-9.87,0-16-5.23-16-13.13ZM1368.88,610.99c-4.9,0-8.44,2.61-9.12,6.81h17.57c-.27-4.47-3.34-6.81-8.44-6.81Z"/>
      <path class="cls-1" d="M1385.97,628.15l5.72-2.4c1.97,2.29,5.31,3.43,8.72,3.43,3.68,0,5.86-1.31,5.86-3.49,0-2.29-3.88-2.78-8.85-3.65-5.92-.98-11.1-2.56-11.1-7.52,0-4.52,5.38-7.95,12.12-7.95,6.06,0,10.76,2.18,13.89,5.5l-5.79,2.23c-1.77-2.18-4.7-3.43-8.1-3.43s-5.72,1.31-5.72,3.27c0,2.18,2.11,2.56,7.97,3.49,5.92.93,11.98,2.61,11.98,7.68,0,4.79-5.24,8.23-12.53,8.23-6.26,0-11.23-2.07-14.16-5.39Z"/>
    </g>
  </g>
</svg>