<?xml version="1.0" encoding="UTF-8"?>
<svg id="Calque_5" data-name="Calque 5" xmlns="http://www.w3.org/2000/svg" xmlns:xlink="http://www.w3.org/1999/xlink" viewBox="0 0 2546 1877.26">
  <defs>
    <style>
      .cls-1 {
        fill: #F2F2F2;
      }

      .cls-2 {
        fill: url(#Dégradé_sans_nom_57);
      }

      .cls-3 {
        fill: url(#Dégradé_sans_nom_57-2);
      }

      .cls-4 {
        fill: url(#Dégradé_sans_nom_57-4);
      }

      .cls-5 {
        fill: url(#Dégradé_sans_nom_57-3);
      }
    </style>
    <linearGradient id="Dégradé_sans_nom_57" data-name="Dégradé sans nom 57" x1="1145.13" y1="207.09" x2="1202.85" y2="207.09" gradientUnits="userSpaceOnUse">
      <stop offset=".3" stop-color="#8f6bff"/>
      <stop offset="1" stop-color="#5835e4"/>
    </linearGradient>
    <linearGradient id="Dégradé_sans_nom_57-2" data-name="Dégradé sans nom 57" x1="1115.41" y1="234.37" x2="1211.81" y2="234.37" xlink:href="#Dégradé_sans_nom_57"/>
    <linearGradient id="Dégradé_sans_nom_57-3" data-name="Dégradé sans nom 57" x1="1122.07" y1="284.85" x2="1179.74" y2="284.85" xlink:href="#Dégradé_sans_nom_57"/>
    <linearGradient id="Dégradé_sans_nom_57-4" data-name="Dégradé sans nom 57" x1="1113.34" y1="263.56" x2="1210.67" y2="263.56" xlink:href="#Dégradé_sans_nom_57"/>
  </defs>
  <g>
    <path class="cls-2" d="M1164.46,205.37c-6.37-3.43-12.97-5.18-19.32-5.6,5.41-2.04,11.28-3.15,17.41-3.15,16.64,0,31.36,8.23,40.31,20.84-11.32.87-23.3-4.5-38.39-12.09h0Z"/>
    <path class="cls-3" d="M1142.18,231.19h-26.77c1.07-3.41,2.51-6.67,4.25-9.72,7.08-1.02,14.83-.52,23.58,2.2,1.83.56,3.75,1.22,5.72,2l.04.04c3.46,1.41,7.13,2.15,10.92,2.15h1.71l46.87.06c1.8,4.58,2.94,9.5,3.3,14.63-5.67,3.21-12.53,5.63-20,5.16-9.64-.59-19.63-6-30.17-11.7-.08-.04-.13-.04-.17-.07-5.8-3.07-12.5-4.74-19.29-4.74Z"/>
    <path class="cls-5" d="M1179.74,292.3c-5.36,1.99-11.16,3.08-17.21,3.08-16.75,0-31.54-8.33-40.47-21.08,7.01.15,14.36,1.88,21.44,5.72h-.09c.09,0,.13.08.21.08,2.56,1.33,5.12,2.59,7.55,3.74.17.11.3.15.47.22,1.28.59,2.56,1.18,3.8,1.74.85.37,1.66.74,2.47,1.07.43.19.85.37,1.28.52.43.19.9.37,1.37.56,6.6,2.65,12.87,4.44,19.17,4.34Z"/>
    <path class="cls-4" d="M1210.67,257.11c-1.05,4.56-2.73,8.88-4.94,12.86h0s0,0,0,0c-6.15,4.03-14.1,7.5-22.89,6.92-9.64-.59-19.67-6-30.21-11.7-.08-.04-.13-.04-.13-.07-5.72-3.07-12.29-4.74-19.03-4.74h-18.2c-.98-3.21-1.63-6.56-1.93-10.01,6.38-.57,13.31.11,21.03,2.49,1.84.56,3.71,1.22,5.63,2h.04c3.46,1.41,7.17,2.19,11.05,2.19h1.54l58.03.07Z"/>
  </g>
  <g>
    <path class="cls-1" d="M1227.63,248.88c3.93-12.04,15.73-19.59,29.09-19.59,18.2,0,25.5,11.5,21.23,24.62l-.45,1.26h-37.97c-.22,5.84,3.82,9.98,12.47,9.98,6.18,0,9.77-2.52,12.24-5.57l10.78,5.03c-4.94,5.48-13.03,9.34-23.7,9.34-19.43,0-28.19-10.6-23.7-25.07ZM1255.38,237.91c-6.4,0-11.91,3.33-14.27,9.53h24.94c.9-4.5-1.35-9.53-10.67-9.53ZM1267.73,211.22h15.95l-.34,1.08-21.34,12.31h-8.2l13.93-13.39Z"/>
    <path class="cls-1" d="M1273.69,248.16c3.71-11.5,15.28-19.05,28.98-19.05s21.9,6.56,22.46,16.09l-13.82,1.98c0-5.3-2.58-9.08-9.55-9.08s-12.8,4.94-15.16,12.04c-2.25,7.01-.9,14.38,10,14.38,5.84,0,9.21-2.7,12.13-7.37l11.57,4.4c-5.73,7.46-13.82,12.04-24.6,12.04-18.2,0-26.51-11.59-22.02-25.43Z"/>
    <path class="cls-1" d="M1332,212.21h13.37l-7.97,23.64c3.93-3.86,8.76-6.29,14.49-6.29,12.69,0,18.87,8.18,14.94,19.77l-7.86,23.37h-13.7l8.09-24.08c1.8-5.57,0-10.16-7.75-10.16-6.29,0-10.56,4.49-12.8,11.41l-7.64,22.83h-13.37l20.22-60.48Z"/>
    <path class="cls-1" d="M1362.22,248.97c3.93-11.86,15.84-19.68,29.54-19.68,18.08,0,27.41,11.32,22.69,24.98-3.82,11.68-15.95,19.41-29.65,19.41-17.52,0-27.18-10.87-22.58-24.71ZM1401.08,253.1c2.36-7.82-.11-14.74-10.22-14.74-7.19,0-12.92,4.4-15.39,11.86-2.13,6.92-.34,14.38,10.45,14.38,7.19,0,12.81-3.86,15.16-11.5Z"/>
    <path class="cls-1" d="M1404.57,262.72l12.47-4.13c2.25,3.68,6.51,6.65,12.92,6.65,3.82,0,6.07-.99,6.96-3.41,1.12-2.87-2.02-4.31-10.78-6.74-11.01-3.06-15.84-7.19-13.82-15.19,2.25-6.83,10.78-11.05,20.78-11.05s19.1,4.13,23.59,11.86l-12.13,3.51c-2.13-3.96-6.29-6.47-12.36-6.47-3.71,0-6.63,1.26-7.53,3.6-.79,3.06,1.46,3.95,9.77,6.29,11.12,2.96,17.86,7.82,15.16,15.73-2.58,7.64-10.33,10.97-21.12,10.97s-19.88-4.4-23.93-11.59Z"/>
  </g>
</svg>
